<?xml version="1.0" encoding="utf-8"?>
<!-- Generator: Adobe Illustrator 17.1.0, SVG Export Plug-In . SVG Version: 6.00 Build 0)  -->
<!DOCTYPE svg PUBLIC "-//W3C//DTD SVG 1.1//EN" "http://www.w3.org/Graphics/SVG/1.1/DTD/svg11.dtd">
<svg version="1.1" id="Layer_1" xmlns="http://www.w3.org/2000/svg" xmlns:xlink="http://www.w3.org/1999/xlink" x="0px" y="0px"
	 viewBox="-159.3 0 76.4 107" enable-background="new -159.3 0 76.4 107" xml:space="preserve">
<g id="New_Symbol_1">
	
		<radialGradient id="Body_4_" cx="-114.7261" cy="79.8302" r="80.3189" gradientTransform="matrix(1 0 0 1 0 -8.200000e-02)" gradientUnits="userSpaceOnUse">
		<stop  offset="5.000000e-02" style="stop-color:#EFAC00"/>
		<stop  offset="0.1743" style="stop-color:#EB9100"/>
		<stop  offset="0.4" style="stop-color:#E15600"/>
		<stop  offset="0.63" style="stop-color:#C82400"/>
		<stop  offset="0.7155" style="stop-color:#B91200"/>
		<stop  offset="0.8126" style="stop-color:#AE0500"/>
		<stop  offset="0.9" style="stop-color:#AA0000"/>
	</radialGradient>
	<path id="Body_2_" fill="url(#Body_4_)" d="M-83,67.6c0.5-7.5-2.3-19.9-4.3-26.3c-2.1-6.4,2.2-14.1,2.2-14.1s-2,0.1-6.9,4.4
		c-4.9,4.3-5,10.4-5,10.4c-5.8-13.7-17.7-22.5-22.1-28.4c-4.4-5.9-1.3-13.6-1.3-13.6c-8.8,3.8-13.4,13.4-14.7,24.7
		c-1.3,11.3-8.5,15.5-8.5,15.5c-1.2-10.6-13.2-13.3-13.2-13.3c2.5,0.9,6.8,13.1,2.2,22c-3.1,6-4.9,12.4-4.9,18.8
		c0,21.1,13.4,38.3,38.3,38.3C-98.5,105.9-83,88.8-83,67.6z"/>
	<g id="Shades_2_">
		<defs>
			<filter id="Adobe_OpacityMaskFilter" filterUnits="userSpaceOnUse" x="-122.9" y="0" width="40" height="103.3">
				
					<feColorMatrix  type="matrix" values="-1 0 0 0 1  0 -1 0 0 1  0 0 -1 0 1  0 0 0 1 0" color-interpolation-filters="sRGB" result="source"/>
			</filter>
		</defs>
		<mask maskUnits="userSpaceOnUse" x="-122.9" y="0" width="40" height="103.3" id="RH_large_shade_4_">
			<g filter="url(#Adobe_OpacityMaskFilter)">
				<linearGradient id="SVGID_1_" gradientUnits="userSpaceOnUse" x1="-104.8378" y1="108.6011" x2="-104.8378" y2="-0.553">
					<stop  offset="0" style="stop-color:#FFFFFF"/>
					<stop  offset="1" style="stop-color:#000000"/>
				</linearGradient>
				<rect x="-129.1" y="-0.6" fill="url(#SVGID_1_)" width="48.5" height="109.2"/>
			</g>
		</mask>
		<path id="RH_large_shade_2_" opacity="0.2" mask="url(#RH_large_shade_4_)" fill="#FDD910" d="M-87.3,41.3
			c-2.1-6.4,2.2-14.1,2.2-14.1s-2,0.1-6.9,4.4c-4.9,4.3-5,10.4-5,10.4c-5.8-13.7-17.7-22.5-22.1-28.4c-3.2-4.3-2.6-10.1-1.3-13.5
			c-2.2,4.3-7.1,11.9,8.8,29.3C-92.1,48.6-85,61.8-88.9,80.9c-2.3,11.3-8.8,15.4-17.6,22.3c-0.1,0.1-0.2,0.1-0.3,0.2
			C-92.2,97.9-83,84-83,67.6C-82.5,60.1-85.2,47.7-87.3,41.3z"/>
		<defs>
			<filter id="Adobe_OpacityMaskFilter_1_" filterUnits="userSpaceOnUse" x="-159.5" y="0" width="39.1" height="92.3">
				<feColorMatrix  type="matrix" values="1 0 0 0 0  0 1 0 0 0  0 0 1 0 0  0 0 0 1 0"/>
			</filter>
		</defs>
		<mask maskUnits="userSpaceOnUse" x="-159.5" y="0" width="39.1" height="92.3" id="LH_large_shade_4_">
			<g filter="url(#Adobe_OpacityMaskFilter_1_)">
				
					<linearGradient id="SVGID_2_" gradientUnits="userSpaceOnUse" x1="1417.5461" y1="95.5297" x2="1382.6304" y2="-0.4006" gradientTransform="matrix(-1 0 0 1 1262 0)">
					<stop  offset="0" style="stop-color:#000000"/>
					<stop  offset="0.1231" style="stop-color:#040404"/>
					<stop  offset="0.2483" style="stop-color:#101010"/>
					<stop  offset="0.3745" style="stop-color:#252525"/>
					<stop  offset="0.5016" style="stop-color:#414141"/>
					<stop  offset="0.6293" style="stop-color:#666666"/>
					<stop  offset="0.7575" style="stop-color:#939393"/>
					<stop  offset="0.8836" style="stop-color:#C8C8C8"/>
					<stop  offset="1" style="stop-color:#FFFFFF"/>
				</linearGradient>
				<rect x="-161.9" y="-3.4" fill="url(#SVGID_2_)" width="45.2" height="108.8"/>
			</g>
		</mask>
		<path id="LH_large_shade_2_" opacity="0.8" mask="url(#LH_large_shade_4_)" fill="#A10200" d="M-159.5,67.6c0,9.4,2.6,18,7.8,24.6
			c-3.9-8.7-7.1-22.9-1.9-33.2c9.5-19,24.2-19.2,23.7-34.5c-0.5-14.7,8.8-23.9,9.5-24.6c0,0,0,0,0,0c-8.8,3.8-13.4,13.4-14.7,24.7
			c-1.3,11.3-8.5,15.5-8.5,15.5c-1.2-10.6-13.2-13.3-13.2-13.3c2.5,0.9,6.8,13.1,2.2,22C-157.7,54.9-159.5,61.3-159.5,67.6z"/>
		<defs>
			<filter id="Adobe_OpacityMaskFilter_2_" filterUnits="userSpaceOnUse" x="-159.5" y="26.9" width="9.6" height="64.4">
				<feColorMatrix  type="matrix" values="1 0 0 0 0  0 1 0 0 0  0 0 1 0 0  0 0 0 1 0"/>
			</filter>
		</defs>
		<mask maskUnits="userSpaceOnUse" x="-159.5" y="26.9" width="9.6" height="64.4" id="SVGID_3_">
			<g filter="url(#Adobe_OpacityMaskFilter_2_)">
				
					<linearGradient id="SVGID_4_" gradientUnits="userSpaceOnUse" x1="1416.7976" y1="96.0513" x2="1416.7976" y2="25.2036" gradientTransform="matrix(-1 0 0 1 1262 0)">
					<stop  offset="0" style="stop-color:#000000"/>
					<stop  offset="1" style="stop-color:#FFFFFF"/>
				</linearGradient>
				<rect x="-162.8" y="25.2" fill="url(#SVGID_4_)" width="15.9" height="70.8"/>
			</g>
		</mask>
		<g mask="url(#SVGID_3_)">
			<path opacity="0.8" fill="#D42400" d="M-150.6,46.9c2.9-9.5-3.2-19.1-6.1-20c2.5,0.9,6.8,13.1,2.2,22c-3.1,6-4.9,12.4-4.9,18.8
				c0,8.9,2.4,17.1,7,23.7C-164.8,65.5-153.5,56.4-150.6,46.9z"/>
		</g>
		<defs>
			<filter id="Adobe_OpacityMaskFilter_3_" filterUnits="userSpaceOnUse" x="-108.5" y="27.2" width="25.6" height="76.8">
				<feColorMatrix  type="matrix" values="1 0 0 0 0  0 1 0 0 0  0 0 1 0 0  0 0 0 1 0"/>
			</filter>
		</defs>
		<mask maskUnits="userSpaceOnUse" x="-108.5" y="27.2" width="25.6" height="76.8" id="SVGID_5_">
			<g filter="url(#Adobe_OpacityMaskFilter_3_)">
				
					<linearGradient id="SVGID_6_" gradientUnits="userSpaceOnUse" x1="1361.0752" y1="107.6502" x2="1361.0752" y2="25.788" gradientTransform="matrix(-1 0 0 1 1262 0)">
					<stop  offset="0" style="stop-color:#000000"/>
					<stop  offset="1" style="stop-color:#FFFFFF"/>
				</linearGradient>
				<rect x="-117.2" y="25.4" fill="url(#SVGID_6_)" width="36.3" height="81.1"/>
			</g>
		</mask>
		<g opacity="0.6" mask="url(#SVGID_5_)">
			<path fill="#FD3B00" d="M-87.3,41.3c-2.1-6.4,2.2-14.1,2.2-14.1c-4.4,6-6.3,10.8-2.3,26.7c6.8,23.9-2,41.4-21.1,50
				C-92.9,98.9-83,84.5-83,67.6C-82.5,60.1-85.2,47.7-87.3,41.3z"/>
		</g>
		<defs>
			<filter id="Adobe_OpacityMaskFilter_4_" filterUnits="userSpaceOnUse" x="-156.7" y="26.9" width="13.1" height="14.4">
				<feColorMatrix  type="matrix" values="1 0 0 0 0  0 1 0 0 0  0 0 1 0 0  0 0 0 1 0"/>
			</filter>
		</defs>
		<mask maskUnits="userSpaceOnUse" x="-156.7" y="26.9" width="13.1" height="14.4" id="LH_ear_4_">
			<g filter="url(#Adobe_OpacityMaskFilter_4_)">
				
					<linearGradient id="SVGID_7_" gradientUnits="userSpaceOnUse" x1="-1451.4304" y1="42.9643" x2="-1458.3448" y2="25.1092" gradientTransform="matrix(1 0 0 1 1305.332 0)">
					<stop  offset="0" style="stop-color:#000000"/>
					<stop  offset="1" style="stop-color:#FFFFFF"/>
				</linearGradient>
				<rect x="-156.9" y="25.6" fill="url(#SVGID_7_)" width="14.9" height="17.4"/>
			</g>
		</mask>
		<path id="LH_ear_2_" mask="url(#LH_ear_4_)" fill="#FD3B00" d="M-156.7,26.9c9.1,2.9,10.8,12.2,11,14.4c0.8-0.2,2.2-1,2.2-1
			C-144.8,29.6-156.7,26.9-156.7,26.9z"/>
		<defs>
			<filter id="Adobe_OpacityMaskFilter_5_" filterUnits="userSpaceOnUse" x="-97.1" y="27.2" width="12" height="17.2">
				<feColorMatrix  type="matrix" values="1 0 0 0 0  0 1 0 0 0  0 0 1 0 0  0 0 0 1 0"/>
			</filter>
		</defs>
		<mask maskUnits="userSpaceOnUse" x="-97.1" y="27.2" width="12" height="17.2" id="RH_ear_4_">
			<g filter="url(#Adobe_OpacityMaskFilter_5_)">
				
					<linearGradient id="SVGID_8_" gradientUnits="userSpaceOnUse" x1="1357.5697" y1="46.7209" x2="1349.405" y2="25.637" gradientTransform="matrix(-1 0 0 1 1262 0)">
					<stop  offset="0" style="stop-color:#000000"/>
					<stop  offset="1" style="stop-color:#FFFFFF"/>
				</linearGradient>
				<rect x="-98.8" y="25.6" fill="url(#SVGID_8_)" width="14.4" height="21.8"/>
			</g>
		</mask>
		<path id="RH_ear_2_" mask="url(#RH_ear_4_)" fill="#A10200" d="M-95.7,44.4c1.3-0.5-0.2-9.8,10.6-17.2c0,0-2,0.1-6.9,4.4
			c-4.9,4.3-5,10.4-5,10.4S-95.9,44-95.7,44.4z"/>
	</g>
	<g id="Smile_2_">
		<g id="Mouth_3_">
			<path id="Mouth_4_" d="M-96.7,70.2c0,13-11,24.5-24.5,24.5c-13.5,0-24.5-11.6-24.5-24.5h-4.1c0,15.6,12.8,28.6,28.6,28.6
				c15.8,0,28.6-13,28.6-28.6H-96.7z"/>
		</g>
		<g id="Eyes_3_">
			<g id="Eyes_4_">
				<g>
					<ellipse cx="-107.7" cy="62.5" rx="5.4" ry="7.5"/>
				</g>
				<g>
					<ellipse cx="-134.9" cy="62.5" rx="5.4" ry="7.5"/>
				</g>
			</g>
		</g>
	</g>
</g>
</svg>

