<?xml version="1.0" encoding="utf-8"?>
<!-- Generator: Adobe Illustrator 17.1.0, SVG Export Plug-In . SVG Version: 6.00 Build 0)  -->
<!DOCTYPE svg PUBLIC "-//W3C//DTD SVG 1.1//EN" "http://www.w3.org/Graphics/SVG/1.1/DTD/svg11.dtd">
<svg version="1.1" id="Layer_1" xmlns="http://www.w3.org/2000/svg" xmlns:xlink="http://www.w3.org/1999/xlink" x="0px" y="0px"
	 viewBox="0 0 512 512" enable-background="new 0 0 512 512" xml:space="preserve">
<g>
	<path fill="#91DC5A" d="M83.9,352.2h1.2c15.5,0,28-12.6,28-28V202.4c0-15.4-12.6-28-28-28h-1.2c-15.5,0-28,12.6-28,28v121.8
		C55.9,339.6,68.4,352.2,83.9,352.2z"/>
	<path fill="#91DC5A" d="M126.4,371.1c0,14.2,11.5,25.6,25.7,25.6h27.5v65.8c0,15.5,12.5,28,28,28h1.2c15.5,0,28-12.6,28-28v-65.8
		h38.4v65.8c0,15.5,12.6,28,28,28h1.2c15.5,0,28-12.6,28-28v-65.8h27.5c14.1,0,25.7-11.4,25.7-25.6V178.9H126.4V371.1z"/>
	<path fill="#91DC5A" d="M386.1,167.3c0.2-2.6,0.4-5.1,0.4-7.6c0-41.7-26.6-78.1-65.9-97.3l21.8-33.7c1.4-2.1,0.8-5-1.4-6.4
		c-2.2-1.5-5-0.9-6.4,1.4l-22.7,34.8C295,51.5,276,47.6,256,47.6c-20.1,0-39,3.9-55.9,10.8l-22.6-34.8c-1.4-2.3-4.3-2.9-6.4-1.4
		c-2.2,1.4-2.8,4.3-1.4,6.4l21.8,33.7c-39.3,19.3-65.9,55.7-65.9,97.3c0,2.6,0.2,5.1,0.4,7.6H386.1z M316.3,97.6
		c7,0,12.5,5.5,12.5,12.4c0,6.9-5.6,12.5-12.5,12.5c-6.9,0-12.5-5.6-12.5-12.5C303.8,103.1,309.4,97.6,316.3,97.6z M195.7,97.6
		c6.9,0,12.5,5.5,12.5,12.4c0,6.9-5.6,12.5-12.5,12.5s-12.5-5.6-12.5-12.5C183.2,103.1,188.8,97.6,195.7,97.6z"/>
	<path fill="#91DC5A" d="M426.9,352.2h1.2c15.5,0,28-12.6,28-28V202.4c0-15.4-12.6-28-28-28h-1.2c-15.5,0-28,12.6-28,28v121.8
		C399,339.6,411.6,352.2,426.9,352.2z"/>
</g>
</svg>

