<svg xmlns="http://www.w3.org/2000/svg" viewBox="0 0 512 512">
  <path fill="#afafaf" d="M446 325.5c2.4-35.9-11-95.2-20.6-125.8-10-30.6 10.5-67.5 10.5-67.5s-9.6.5-33 21.1S379 203 379 203c-27.8-65.6-84.7-107.7-105.7-135.9C252.2 38.8 267 2 267 2c-42.1 18.2-64.1 64.1-70.3 118.2-6.2 54.1-40.7 74.2-40.7 74.2-5.7-50.7-63.2-63.6-63.2-63.6 12 4.3 32.5 62.7 10.5 105.3-14.8 28.7-23.4 59.3-23.4 90 0 101 64.1 183.3 183.3 183.3 108.6-.7 182.8-82.5 182.8-183.9z"/>
  <path opacity=".2" fill="#afafaf" d="M425.4 199.6c-10-30.6 10.5-67.5 10.5-67.5s-9.6.5-33 21.1S379 203 379 203c-27.8-65.6-84.7-107.7-105.7-135.9C258 46.5 260.8 18.7 267 2.5c-10.5 20.6-34 56.9 42.1 140.2 93.3 91.9 127.3 155 108.6 246.4-11 54.1-42.1 73.7-84.2 106.7-.5.5-1 .5-1.4 1C402 470.5 446 403.9 446 325.5c2.4-35.9-10.5-95.3-20.6-125.9z"/>
  <path opacity=".8" fill="#afafaf" d="M80 325.5c0 45 12.4 86.1 37.3 117.7-18.7-41.6-34-109.6-9.1-158.9 45.5-90.9 115.8-91.9 113.4-165.1C219.2 48.9 263.7 4.9 267 1.5c-42.1 18.2-64.1 64.1-70.3 118.2S156 193.9 156 193.9c-5.7-50.7-63.2-63.6-63.2-63.6 12 4.3 32.5 62.7 10.5 105.3C88.6 264.7 80 295.3 80 325.5z"/>
  <path opacity=".8" fill="#afafaf" d="M122.5 226.4c13.9-45.5-15.3-91.4-29.2-95.7 12 4.3 32.5 62.7 10.5 105.3-14.8 28.7-23.4 59.3-23.4 90 0 42.6 11.5 81.8 33.5 113.4-59.3-124-5.2-167.5 8.6-213z"/>
  <path fill="#afafaf" d="M425.4 199.6c-10-30.6 10.5-67.5 10.5-67.5-21.1 28.7-30.1 51.7-11 127.8 32.5 114.4-9.6 198.1-101 239.3 74.6-23.9 122-92.8 122-173.7 2.5-35.9-10.4-95.3-20.5-125.9z" opacity=".6"/>
  <path fill="#afafaf" d="M93.4 130.7c43.5 13.9 51.7 58.4 52.6 68.9 3.8-1 10.5-4.8 10.5-4.8-6.2-51.2-63.1-64.1-63.1-64.1zm291.8 83.8c6.2-2.4-1-46.9 50.7-82.3 0 0-9.6.5-33 21.1S379 203 379 203s5.3 9.5 6.2 11.5z"/>
  <path d="M380.5 337.9c0 62.2-52.6 117.2-117.2 117.2S146 399.6 146 337.9h-19.6c0 74.6 61.2 136.9 136.9 136.9s136.9-62.2 136.9-136.9h-19.7z" fill="#7e7e81"/>
  <ellipse cx="327.8" cy="301.1" rx="25.8" ry="35.9" fill="#7e7e81"/>
  <ellipse cx="197.7" cy="301.1" rx="25.8" ry="35.9" fill="#7e7e81"/>
</svg>
