<?xml version="1.0" encoding="utf-8"?>
<!-- Generator: Adobe Illustrator 17.1.0, SVG Export Plug-In . SVG Version: 6.00 Build 0)  -->
<!DOCTYPE svg PUBLIC "-//W3C//DTD SVG 1.1//EN" "http://www.w3.org/Graphics/SVG/1.1/DTD/svg11.dtd">
<svg version="1.1" id="Layer_1" xmlns="http://www.w3.org/2000/svg" xmlns:xlink="http://www.w3.org/1999/xlink" x="0px" y="0px"
	 viewBox="0 0 512 512" enable-background="new 0 0 512 512" xml:space="preserve">
<path fill="#00CDFF" d="M11.4,25.1c-1.3,4.2-2,8.8-2,14v432.6c0,5.3,0.9,9.7,2,14l242.8-230.3L11.4,25.1L11.4,25.1z"/>
<path fill="#21F388" d="M349,165.8L65.4,8.2C54.2,1.4,43-0.3,33.6,2.1l243.9,231.6L349,165.8z"/>
<path fill="#FFE100" d="M453.5,224l-75.7-42.1l-77.5,73.3l79,75.1l73.5-40.4C488.8,269.5,475.7,236.5,453.5,224L453.5,224z"/>
<rect x="9.5" y="1" fill="none" width="467.3" height="511"/>
<path fill="#FC3845" d="M32.9,508.7c9.7,2.6,20.9,1.1,32.5-5.9l284.3-156.1l-72.9-69.1C277,277.4,32.9,508.7,32.9,508.7L32.9,508.7z
	"/>
</svg>

